<svg width="186" height="180" viewBox="0 0 186 180" fill="none" xmlns="http://www.w3.org/2000/svg">
<circle cx="92" cy="90" r="86" fill="#F7D611"/>
<path d="M149.348 163.631H36.6542C35.1163 163.631 33.6414 163.02 32.554 161.933C31.4665 160.846 30.8556 159.371 30.8556 157.833V78.8976C30.8556 70.259 37.5692 63.2603 45.8513 63.2603H140.162C148.444 63.2603 155.158 70.259 155.158 78.8976V157.833C155.158 161.041 152.556 163.631 149.348 163.631Z" fill="#FAFAFA" stroke="#BDBDBD" stroke-width="3.56474" stroke-miterlimit="10"/>
<path d="M150.167 33.7086H144.464C143.276 33.7086 142.313 34.671 142.313 35.8593V40.7192C142.313 41.5153 142.765 42.2045 143.442 42.6204C145.83 44.0463 147.292 46.8624 146.662 49.9519C146.127 52.566 144.036 54.6811 141.422 55.2277C140.418 55.4483 139.377 55.441 138.376 55.2062C137.375 54.9715 136.439 54.5152 135.638 53.8711C134.836 53.227 134.189 52.4114 133.745 51.4843C133.3 50.5573 133.069 49.5423 133.069 48.5141C133.069 45.995 134.423 43.7968 136.455 42.6085C137.132 42.2045 137.572 41.5153 137.572 40.7311V35.8593C137.572 34.671 136.61 33.7086 135.421 33.7086H50.5449C49.3804 33.7086 48.4417 34.6473 48.4417 35.8118V40.7549C48.4417 41.5272 48.8814 42.2045 49.5468 42.5966C50.789 43.3262 51.7705 44.4276 52.3526 45.7453C52.9347 47.0631 53.088 48.5304 52.7907 49.94C52.256 52.5541 50.1647 54.6692 47.5505 55.2158C46.5463 55.4364 45.5054 55.4291 44.5043 55.1943C43.5033 54.9596 42.5677 54.5034 41.7663 53.8592C40.9648 53.2151 40.318 52.3995 39.8734 51.4725C39.4288 50.5454 39.1977 49.5304 39.1971 48.5022C39.1971 45.9713 40.5755 43.773 42.6074 42.5729C43.2609 42.1926 43.6887 41.5035 43.6887 40.743V35.8118C43.6887 34.6473 42.75 33.7086 41.5855 33.7086H35.8225C34.0105 33.7086 32.2726 34.4284 30.9913 35.7097C29.71 36.9911 28.9901 38.7289 28.9901 40.541V85.124H156.81L157 40.5766C157.005 39.6762 156.833 38.7835 156.492 37.9501C156.151 37.1167 155.648 36.3589 155.013 35.7206C154.378 35.0822 153.623 34.5757 152.791 34.2304C151.96 33.8851 151.068 33.7078 150.167 33.7086Z" fill="black"/>
<path d="M71.9891 58.4074H67.3554L69.6723 50.3849L71.9891 58.4074ZM67.632 70.0263V65.0468H65.4535L66.0759 62.8682H73.2686L73.9256 65.0468H71.7471V70.0263H83.0201V65.0468H81.222L74.9284 45.3016H65.903L59.6095 65.0468H57.8459V70.0263H67.632ZM96.4453 67.0178V70.0263H104.33V65.7038H102.67V51.941H94.7854V56.4018H96.4453V62.1075C96.4453 64.4243 95.235 65.4963 93.5751 65.4963C91.9153 65.4963 91.12 64.5281 91.12 62.5224V51.941H83.3049V56.4018H84.8956V63.7327C84.8956 68.3665 87.3507 70.5104 90.6704 70.5104C93.6443 70.5104 95.5116 68.8506 96.4453 67.0178ZM115.354 64.5627C113.141 64.5627 111.827 62.972 111.827 60.4822V60.2056C111.827 57.7158 113.072 56.0906 115.389 56.0906C117.671 56.0906 118.916 57.6812 118.916 60.171V60.4131C118.916 62.972 117.567 64.5627 115.354 64.5627ZM114.939 76.7348C121.371 76.7348 124.933 73.8993 124.967 68.5048V56.4018H126.558V51.941H118.743V54.4999C117.74 52.6671 116.046 51.4568 113.176 51.4568C108.922 51.4568 105.499 54.8457 105.499 60.171V60.4476C105.499 65.8767 108.957 68.9197 113.176 68.9197C115.873 68.9197 117.844 67.5365 118.743 65.8075V68.5739C118.743 70.8216 117.671 72.3777 114.939 72.3777C112.691 72.3777 111.896 71.3403 111.619 70.0955H105.637C106.087 74.2105 108.957 76.7348 114.939 76.7348Z" fill="white"/>
<path d="M100.188 136.255H90.4519L99.8891 128.371C105.086 124.07 108.729 119.949 108.729 113.856C108.729 106.211 103.174 101.194 92.7814 101.194C82.4482 101.194 75.9975 106.629 75.5794 117.321H86.6293C87.2266 112.244 89.1379 110.392 92.1841 110.392C95.0511 110.392 96.5443 112.184 96.5443 114.752C96.5443 117.739 95.1108 120.068 89.4963 124.966L75.3405 137.629V144.497H109.267V131.715H100.188V136.255Z" fill="black"/>
</svg>
