<svg width="186" height="180" viewBox="0 0 186 180" fill="none" xmlns="http://www.w3.org/2000/svg">
<circle cx="92" cy="90" r="86" fill="#F7D611"/>
<path d="M149.347 163.631H36.6541C35.1162 163.631 33.6413 163.02 32.5539 161.933C31.4664 160.846 30.8555 159.371 30.8555 157.833V78.8976C30.8555 70.259 37.5691 63.2603 45.8511 63.2603H140.162C148.444 63.2603 155.158 70.259 155.158 78.8976V157.833C155.158 161.041 152.556 163.631 149.347 163.631Z" fill="#FAFAFA" stroke="#BDBDBD" stroke-width="3.56474" stroke-miterlimit="10"/>
<path d="M150.168 33.7086H144.464C143.276 33.7086 142.313 34.671 142.313 35.8593V40.7192C142.313 41.5153 142.765 42.2045 143.442 42.6204C145.83 44.0463 147.292 46.8624 146.662 49.9519C146.128 52.566 144.036 54.6811 141.422 55.2277C140.418 55.4483 139.377 55.441 138.376 55.2062C137.375 54.9715 136.439 54.5152 135.638 53.8711C134.836 53.227 134.19 52.4114 133.745 51.4843C133.3 50.5573 133.069 49.5423 133.069 48.5141C133.069 45.995 134.423 43.7968 136.455 42.6085C137.133 42.2045 137.572 41.5153 137.572 40.7311V35.8593C137.572 34.671 136.61 33.7086 135.421 33.7086H50.545C49.3805 33.7086 48.4418 34.6473 48.4418 35.8118V40.7549C48.4418 41.5272 48.8815 42.2045 49.5469 42.5966C50.7891 43.3262 51.7706 44.4276 52.3527 45.7453C52.9348 47.0631 53.0881 48.5304 52.7908 49.94C52.2561 52.5541 50.1648 54.6692 47.5506 55.2158C46.5464 55.4364 45.5055 55.4291 44.5045 55.1943C43.5034 54.9596 42.5678 54.5034 41.7664 53.8592C40.9649 53.2151 40.3181 52.3995 39.8735 51.4725C39.4289 50.5454 39.1978 49.5304 39.1973 48.5022C39.1973 45.9713 40.5756 43.773 42.6075 42.5729C43.2611 42.1926 43.6888 41.5035 43.6888 40.743V35.8118C43.6888 34.6473 42.7501 33.7086 41.5856 33.7086H35.8227C34.0106 33.7086 32.2727 34.4284 30.9914 35.7097C29.7101 36.9911 28.9902 38.7289 28.9902 40.541V85.124H156.81L157 40.5766C157.005 39.6762 156.833 38.7835 156.492 37.9501C156.151 37.1167 155.648 36.3589 155.013 35.7206C154.378 35.0822 153.623 34.5757 152.791 34.2304C151.96 33.8851 151.068 33.7078 150.168 33.7086Z" fill="black"/>
<path d="M71.989 58.4074H67.3553L69.6721 50.3849L71.989 58.4074ZM67.6319 70.0263V65.0468H65.4534L66.0758 62.8682H73.2684L73.9255 65.0468H71.7469V70.0263H83.02V65.0468H81.2219L74.9283 45.3016H65.9029L59.6093 65.0468H57.8458V70.0263H67.6319ZM96.4452 67.0178V70.0263H104.329V65.7038H102.67V51.941H94.7853V56.4018H96.4452V62.1075C96.4452 64.4243 95.2349 65.4963 93.575 65.4963C91.9152 65.4963 91.1198 64.5281 91.1198 62.5224V51.941H83.3048V56.4018H84.8954V63.7327C84.8954 68.3665 87.3506 70.5104 90.6703 70.5104C93.6442 70.5104 95.5115 68.8506 96.4452 67.0178ZM115.354 64.5627C113.141 64.5627 111.827 62.972 111.827 60.4822V60.2056C111.827 57.7158 113.072 56.0906 115.389 56.0906C117.671 56.0906 118.916 57.6812 118.916 60.171V60.4131C118.916 62.972 117.567 64.5627 115.354 64.5627ZM114.939 76.7348C121.371 76.7348 124.933 73.8993 124.967 68.5048V56.4018H126.558V51.941H118.743V54.4999C117.74 52.6671 116.046 51.4568 113.175 51.4568C108.922 51.4568 105.499 54.8457 105.499 60.171V60.4476C105.499 65.8767 108.957 68.9197 113.175 68.9197C115.873 68.9197 117.844 67.5365 118.743 65.8075V68.5739C118.743 70.8216 117.671 72.3777 114.939 72.3777C112.691 72.3777 111.896 71.3403 111.619 70.0955H105.637C106.086 74.2105 108.957 76.7348 114.939 76.7348Z" fill="white"/>
<path d="M80.2394 136.255H70.5036L79.9408 128.371C85.1372 124.07 88.7807 119.949 88.7807 113.856C88.7807 106.211 83.2259 101.194 72.833 101.194C62.4999 101.194 56.0492 106.629 55.631 117.321H66.6809C67.2782 112.244 69.1896 110.392 72.2357 110.392C75.1027 110.392 76.596 112.184 76.596 114.752C76.596 117.739 75.1625 120.068 69.5479 124.966L55.3921 137.629V144.497H89.3183V131.715H80.2394V136.255ZM110.341 122.099C106.817 122.099 104.667 119.531 104.667 116.007C104.667 112.363 106.877 109.735 110.341 109.735C113.925 109.735 116.195 112.363 116.195 116.126C116.195 119.531 113.866 122.099 110.341 122.099ZM110.282 145.154C122.467 145.154 129.216 137.33 129.216 123.473V122.039C129.216 109.675 123.243 101.134 110.521 101.134C99.65 101.134 92.9603 107.226 92.9603 116.186C92.9603 125.265 99.1722 129.983 107.355 129.983C112.611 129.983 115.239 127.893 117.091 124.966C116.912 132.253 114.761 136.076 109.684 136.076C106.459 136.076 105.145 134.582 104.727 132.432H93.4979C94.3341 140.615 100.247 145.154 110.282 145.154Z" fill="black"/>
</svg>
