<svg width="186" height="180" viewBox="0 0 186 180" fill="none" xmlns="http://www.w3.org/2000/svg">
<circle cx="92" cy="90" r="86" fill="#F7D611"/>
<path d="M149.348 163.631H36.6542C35.1163 163.631 33.6414 163.02 32.554 161.933C31.4665 160.846 30.8556 159.371 30.8556 157.833V78.8976C30.8556 70.259 37.5692 63.2603 45.8513 63.2603H140.162C148.444 63.2603 155.158 70.259 155.158 78.8976V157.833C155.158 161.041 152.556 163.631 149.348 163.631Z" fill="#FAFAFA" stroke="#BDBDBD" stroke-width="3.56474" stroke-miterlimit="10"/>
<path d="M150.167 33.7086H144.464C143.276 33.7086 142.313 34.671 142.313 35.8593V40.7192C142.313 41.5153 142.765 42.2045 143.442 42.6204C145.83 44.0463 147.292 46.8624 146.662 49.9519C146.127 52.566 144.036 54.6811 141.422 55.2277C140.418 55.4483 139.377 55.441 138.376 55.2062C137.375 54.9715 136.439 54.5152 135.638 53.8711C134.836 53.227 134.189 52.4114 133.745 51.4843C133.3 50.5573 133.069 49.5423 133.069 48.5141C133.069 45.995 134.423 43.7968 136.455 42.6085C137.132 42.2045 137.572 41.5153 137.572 40.7311V35.8593C137.572 34.671 136.61 33.7086 135.421 33.7086H50.5449C49.3804 33.7086 48.4417 34.6473 48.4417 35.8118V40.7549C48.4417 41.5272 48.8814 42.2045 49.5468 42.5966C50.789 43.3262 51.7705 44.4276 52.3526 45.7453C52.9347 47.0631 53.088 48.5304 52.7907 49.94C52.256 52.5541 50.1647 54.6692 47.5505 55.2158C46.5463 55.4364 45.5054 55.4291 44.5043 55.1943C43.5033 54.9596 42.5677 54.5034 41.7663 53.8592C40.9648 53.2151 40.318 52.3995 39.8734 51.4725C39.4288 50.5454 39.1977 49.5304 39.1971 48.5022C39.1971 45.9713 40.5755 43.773 42.6074 42.5729C43.2609 42.1926 43.6887 41.5035 43.6887 40.743V35.8118C43.6887 34.6473 42.75 33.7086 41.5855 33.7086H35.8225C34.0105 33.7086 32.2726 34.4284 30.9913 35.7097C29.71 36.9911 28.9901 38.7289 28.9901 40.541V85.124H156.81L157 40.5766C157.005 39.6762 156.833 38.7835 156.492 37.9501C156.151 37.1167 155.648 36.3589 155.013 35.7206C154.378 35.0822 153.623 34.5757 152.791 34.2304C151.96 33.8851 151.068 33.7078 150.167 33.7086Z" fill="black"/>
<path d="M67.7612 70.3375C73.709 70.3375 76.752 67.2945 76.752 61.3467V50.2811H78.896V45.3016H67.1388V50.2811H69.6286V61.2776C69.6286 63.8365 68.3145 64.701 66.2743 64.701C64.7874 64.701 63.992 64.4589 63.1621 64.1823V69.4384C64.1649 69.9571 65.3406 70.3375 67.7612 70.3375ZM93.2137 67.0178V70.0263H101.098V65.7038H99.4381V51.941H91.5539V56.4018H93.2137V62.1075C93.2137 64.4243 92.0034 65.4963 90.3436 65.4963C88.6838 65.4963 87.8884 64.5281 87.8884 62.5224V51.941H80.0733V56.4018H81.664V63.7327C81.664 68.3665 84.1192 70.5104 87.4389 70.5104C90.4128 70.5104 92.2801 68.8506 93.2137 67.0178ZM111.738 70.0263V65.7038H110.078V43.9876H102.263V48.4484H103.923V65.7038H102.298V70.0263H111.738ZM117.603 50.2465C119.54 50.2465 121.027 48.8633 121.027 46.996C121.027 45.1633 119.54 43.7801 117.603 43.7801C115.632 43.7801 114.145 45.1633 114.145 46.996C114.145 48.8633 115.632 50.2465 117.603 50.2465ZM122.375 70.0263V65.7038H120.716V51.941H112.901V56.4018H114.56V65.7038H112.935V70.0263H122.375Z" fill="white"/>
<path d="M93.119 145.214C104.408 145.214 110.44 139.898 110.44 131.775C110.44 126.579 107.036 123.114 102.138 122.099C106.618 120.785 109.365 117.679 109.365 112.901C109.365 105.793 103.333 101.194 93.2982 101.194C82.6664 101.194 77.0518 106.988 76.5143 115.409H87.3253C87.8031 111.945 89.7144 109.974 92.9995 109.974C96.2249 109.974 97.8973 111.646 97.8973 114.215C97.8973 117.201 96.0457 118.933 92.223 118.933H89.0574V126.519H92.462C96.2846 126.519 98.0765 128.191 98.0765 131.536C98.0765 134.582 96.2249 136.374 92.462 136.374C88.2212 136.374 86.5488 133.985 86.1904 130.461H75.3197C75.6781 139.719 81.2329 145.214 93.119 145.214Z" fill="black"/>
</svg>
