<svg width="186" height="180" viewBox="0 0 186 180" fill="none" xmlns="http://www.w3.org/2000/svg">
<circle cx="92" cy="90" r="86" fill="#F7D611"/>
<path d="M149.347 163.631H36.6541C35.1162 163.631 33.6413 163.02 32.5539 161.933C31.4664 160.846 30.8555 159.371 30.8555 157.833V78.8976C30.8555 70.259 37.5691 63.2603 45.8511 63.2603H140.162C148.444 63.2603 155.158 70.259 155.158 78.8976V157.833C155.158 161.041 152.556 163.631 149.347 163.631Z" fill="#FAFAFA" stroke="#BDBDBD" stroke-width="3.56474" stroke-miterlimit="10"/>
<path d="M150.168 33.7086H144.464C143.276 33.7086 142.313 34.671 142.313 35.8593V40.7192C142.313 41.5153 142.765 42.2045 143.442 42.6204C145.83 44.0463 147.292 46.8624 146.662 49.9519C146.128 52.566 144.036 54.6811 141.422 55.2277C140.418 55.4483 139.377 55.441 138.376 55.2062C137.375 54.9715 136.439 54.5152 135.638 53.8711C134.836 53.227 134.19 52.4114 133.745 51.4843C133.3 50.5573 133.069 49.5423 133.069 48.5141C133.069 45.995 134.423 43.7968 136.455 42.6085C137.133 42.2045 137.572 41.5153 137.572 40.7311V35.8593C137.572 34.671 136.61 33.7086 135.421 33.7086H50.545C49.3805 33.7086 48.4418 34.6473 48.4418 35.8118V40.7549C48.4418 41.5272 48.8815 42.2045 49.5469 42.5966C50.7891 43.3262 51.7706 44.4276 52.3527 45.7453C52.9348 47.0631 53.0881 48.5304 52.7908 49.94C52.2561 52.5541 50.1648 54.6692 47.5506 55.2158C46.5464 55.4364 45.5055 55.4291 44.5045 55.1943C43.5034 54.9596 42.5678 54.5034 41.7664 53.8592C40.9649 53.2151 40.3181 52.3995 39.8735 51.4725C39.4289 50.5454 39.1978 49.5304 39.1973 48.5022C39.1973 45.9713 40.5756 43.773 42.6075 42.5729C43.2611 42.1926 43.6888 41.5035 43.6888 40.743V35.8118C43.6888 34.6473 42.7501 33.7086 41.5856 33.7086H35.8227C34.0106 33.7086 32.2727 34.4284 30.9914 35.7097C29.7101 36.9911 28.9902 38.7289 28.9902 40.541V85.124H156.81L157 40.5766C157.005 39.6762 156.833 38.7835 156.492 37.9501C156.151 37.1167 155.648 36.3589 155.013 35.7206C154.378 35.0822 153.623 34.5757 152.791 34.2304C151.96 33.8851 151.068 33.7078 150.168 33.7086Z" fill="black"/>
<path d="M67.7611 70.3375C73.7089 70.3375 76.7519 67.2945 76.7519 61.3467V50.2811H78.8959V45.3016H67.1387V50.2811H69.6284V61.2776C69.6284 63.8365 68.3144 64.701 66.2742 64.701C64.7872 64.701 63.9919 64.4589 63.162 64.1823V69.4384C64.1648 69.9571 65.3405 70.3375 67.7611 70.3375ZM93.2136 67.0178V70.0263H101.098V65.7038H99.438V51.941H91.5538V56.4018H93.2136V62.1075C93.2136 64.4243 92.0033 65.4963 90.3435 65.4963C88.6836 65.4963 87.8883 64.5281 87.8883 62.5224V51.941H80.0732V56.4018H81.6639V63.7327C81.6639 68.3665 84.1191 70.5104 87.4388 70.5104C90.4126 70.5104 92.28 68.8506 93.2136 67.0178ZM111.738 70.0263V65.7038H110.078V43.9876H102.263V48.4484H103.923V65.7038H102.298V70.0263H111.738ZM117.603 50.2465C119.54 50.2465 121.027 48.8633 121.027 46.996C121.027 45.1633 119.54 43.7801 117.603 43.7801C115.632 43.7801 114.145 45.1633 114.145 46.996C114.145 48.8633 115.632 50.2465 117.603 50.2465ZM122.375 70.0263V65.7038H120.716V51.941H112.9V56.4018H114.56V65.7038H112.935V70.0263H122.375Z" fill="white"/>
<path d="M81.0311 136.255H71.2952L80.7324 128.371C85.9289 124.07 89.5723 119.949 89.5723 113.856C89.5723 106.211 84.0175 101.194 73.6247 101.194C63.2915 101.194 56.8408 106.629 56.4227 117.321H67.4726C68.0699 112.244 69.9812 110.392 73.0274 110.392C75.8944 110.392 77.3876 112.184 77.3876 114.752C77.3876 117.739 75.9541 120.068 70.3396 124.966L56.1838 137.629V144.497H90.1099V131.715H81.0311V136.255ZM129.723 130.222C129.723 121.263 123.332 116.544 115.567 116.544C110.251 116.544 107.504 118.575 105.592 121.502C105.831 114.215 108.4 110.213 113.058 110.213C116.105 110.213 117.12 111.706 117.538 113.797H128.827C127.931 105.435 122.197 101.194 112.64 101.194C101.77 101.194 93.4673 109.257 93.4673 123.174V124.309C93.4673 136.494 98.6638 145.214 112.282 145.214C123.093 145.214 129.723 139.241 129.723 130.222ZM112.103 136.553C108.579 136.553 106.309 133.985 106.309 130.222C106.309 126.818 108.639 124.189 112.163 124.189C115.627 124.189 117.837 126.758 117.837 130.342C117.837 133.985 115.567 136.553 112.103 136.553Z" fill="black"/>
</svg>
