<svg width="186" height="180" viewBox="0 0 186 180" fill="none" xmlns="http://www.w3.org/2000/svg">
<circle cx="92" cy="90" r="86" fill="#F7D611"/>
<path d="M149.347 163.631H36.6541C35.1162 163.631 33.6413 163.02 32.5539 161.933C31.4664 160.846 30.8555 159.371 30.8555 157.833V78.8976C30.8555 70.259 37.5691 63.2603 45.8511 63.2603H140.162C148.444 63.2603 155.158 70.259 155.158 78.8976V157.833C155.158 161.041 152.556 163.631 149.347 163.631Z" fill="#FAFAFA" stroke="#BDBDBD" stroke-width="3.56474" stroke-miterlimit="10"/>
<path d="M150.168 33.7086H144.464C143.276 33.7086 142.313 34.671 142.313 35.8593V40.7192C142.313 41.5153 142.765 42.2045 143.442 42.6204C145.83 44.0463 147.292 46.8624 146.662 49.9519C146.128 52.566 144.036 54.6811 141.422 55.2277C140.418 55.4483 139.377 55.441 138.376 55.2062C137.375 54.9715 136.439 54.5152 135.638 53.8711C134.836 53.227 134.19 52.4114 133.745 51.4843C133.3 50.5573 133.069 49.5423 133.069 48.5141C133.069 45.995 134.423 43.7968 136.455 42.6085C137.133 42.2045 137.572 41.5153 137.572 40.7311V35.8593C137.572 34.671 136.61 33.7086 135.421 33.7086H50.545C49.3805 33.7086 48.4418 34.6473 48.4418 35.8118V40.7549C48.4418 41.5272 48.8815 42.2045 49.5469 42.5966C50.7891 43.3262 51.7706 44.4276 52.3527 45.7453C52.9348 47.0631 53.0881 48.5304 52.7908 49.94C52.2561 52.5541 50.1648 54.6692 47.5506 55.2158C46.5464 55.4364 45.5055 55.4291 44.5045 55.1943C43.5034 54.9596 42.5678 54.5034 41.7664 53.8592C40.9649 53.2151 40.3181 52.3995 39.8735 51.4725C39.4289 50.5454 39.1978 49.5304 39.1973 48.5022C39.1973 45.9713 40.5756 43.773 42.6075 42.5729C43.2611 42.1926 43.6888 41.5035 43.6888 40.743V35.8118C43.6888 34.6473 42.7501 33.7086 41.5856 33.7086H35.8227C34.0106 33.7086 32.2727 34.4284 30.9914 35.7097C29.7101 36.9911 28.9902 38.7289 28.9902 40.541V85.124H156.81L157 40.5766C157.005 39.6762 156.833 38.7835 156.492 37.9501C156.151 37.1167 155.648 36.3589 155.013 35.7206C154.378 35.0822 153.623 34.5757 152.791 34.2304C151.96 33.8851 151.068 33.7078 150.168 33.7086Z" fill="black"/>
<path d="M61.9696 70.3375C59.549 70.3375 58.3733 69.9571 57.3705 69.4384V64.1823C58.2004 64.4589 58.9958 64.701 60.4827 64.701C62.5229 64.701 63.837 63.8365 63.837 61.2776V50.2811H61.3472V45.3016H73.1044V50.2811H70.9604V61.3467C70.9604 67.2945 67.9174 70.3375 61.9696 70.3375ZM87.4221 67.0178C86.4885 68.8506 84.6212 70.5104 81.6473 70.5104C78.3276 70.5104 75.8724 68.3665 75.8724 63.7327V56.4018H74.2817V51.941H82.0968V62.5224C82.0968 64.5281 82.8922 65.4963 84.552 65.4963C86.2118 65.4963 87.4221 64.4243 87.4221 62.1075V56.4018H85.7623V51.941H93.6465V65.7038H95.3064V70.0263H87.4221V67.0178ZM106.016 70.0263H96.5061V65.7038H98.1314V56.4018H96.4716V51.941H104.321V54.9494C105.255 53.1513 107.122 51.4568 110.131 51.4568C113.485 51.4568 115.94 53.6008 115.94 58.1999V65.7038H117.531V70.0263H108.056V65.7038H109.716V59.4102C109.716 57.4392 108.92 56.4709 107.261 56.4709C105.532 56.4709 104.321 57.5429 104.321 59.8252V65.7038H106.016V70.0263ZM123.395 50.2465C121.424 50.2465 119.937 48.8633 119.937 46.996C119.937 45.1633 121.424 43.7801 123.395 43.7801C125.331 43.7801 126.818 45.1633 126.818 46.996C126.818 48.8633 125.331 50.2465 123.395 50.2465ZM128.167 70.0263H118.727V65.7038H120.352V56.4018H118.692V51.941H126.507V65.7038H128.167V70.0263Z" fill="white"/>
<path d="M87.0283 144.497H61.2253V135.896H68.2733V113.856L60.628 118.575V108.302L69.9457 101.791H80.5178V135.896H87.0283V144.497ZM106.583 122.099C110.107 122.099 112.437 119.531 112.437 116.126C112.437 112.363 110.167 109.735 106.583 109.735C103.119 109.735 100.909 112.363 100.909 116.007C100.909 119.531 103.059 122.099 106.583 122.099ZM106.524 145.154C96.4892 145.154 90.5761 140.615 89.7399 132.432H100.969C101.387 134.582 102.701 136.076 105.926 136.076C111.003 136.076 113.154 132.253 113.333 124.966C111.481 127.893 108.853 129.983 103.597 129.983C95.4141 129.983 89.2023 125.265 89.2023 116.186C89.2023 107.226 95.892 101.134 106.763 101.134C119.485 101.134 125.458 109.675 125.458 122.039V123.473C125.458 137.33 118.708 145.154 106.524 145.154Z" fill="black"/>
</svg>
