<svg width="186" height="180" viewBox="0 0 186 180" fill="none" xmlns="http://www.w3.org/2000/svg">
<circle cx="92" cy="90" r="86" fill="#F7D611"/>
<path d="M149.348 163.631H36.6542C35.1163 163.631 33.6414 163.02 32.554 161.933C31.4665 160.846 30.8556 159.371 30.8556 157.833V78.8976C30.8556 70.259 37.5692 63.2603 45.8513 63.2603H140.162C148.444 63.2603 155.158 70.259 155.158 78.8976V157.833C155.158 161.041 152.556 163.631 149.348 163.631Z" fill="#FAFAFA" stroke="#BDBDBD" stroke-width="3.56474" stroke-miterlimit="10"/>
<path d="M150.167 33.7086H144.464C143.276 33.7086 142.313 34.671 142.313 35.8593V40.7192C142.313 41.5153 142.765 42.2045 143.442 42.6204C145.83 44.0463 147.292 46.8624 146.662 49.9519C146.127 52.566 144.036 54.6811 141.422 55.2277C140.418 55.4483 139.377 55.441 138.376 55.2062C137.375 54.9715 136.439 54.5152 135.638 53.8711C134.836 53.227 134.189 52.4114 133.745 51.4843C133.3 50.5573 133.069 49.5423 133.069 48.5141C133.069 45.995 134.423 43.7968 136.455 42.6085C137.132 42.2045 137.572 41.5153 137.572 40.7311V35.8593C137.572 34.671 136.61 33.7086 135.421 33.7086H50.5449C49.3804 33.7086 48.4417 34.6473 48.4417 35.8118V40.7549C48.4417 41.5272 48.8814 42.2045 49.5468 42.5966C50.789 43.3262 51.7705 44.4276 52.3526 45.7453C52.9347 47.0631 53.088 48.5304 52.7907 49.94C52.256 52.5541 50.1647 54.6692 47.5505 55.2158C46.5463 55.4364 45.5054 55.4291 44.5043 55.1943C43.5033 54.9596 42.5677 54.5034 41.7663 53.8592C40.9648 53.2151 40.318 52.3995 39.8734 51.4725C39.4288 50.5454 39.1977 49.5304 39.1971 48.5022C39.1971 45.9713 40.5755 43.773 42.6074 42.5729C43.261 42.1926 43.6887 41.5035 43.6887 40.743V35.8118C43.6887 34.6473 42.75 33.7086 41.5855 33.7086H35.8225C34.0105 33.7086 32.2726 34.4284 30.9913 35.7097C29.71 36.9911 28.9901 38.7289 28.9901 40.541V85.124H156.81L157 40.5766C157.005 39.6762 156.833 38.7835 156.492 37.9501C156.151 37.1167 155.648 36.3589 155.013 35.7206C154.378 35.0822 153.623 34.5757 152.791 34.2304C151.96 33.8851 151.068 33.7078 150.167 33.7086Z" fill="black"/>
<path d="M61.9698 70.3375C59.5492 70.3375 58.3734 69.9571 57.3706 69.4384V64.1823C58.2005 64.4589 58.9959 64.701 60.4828 64.701C62.523 64.701 63.8371 63.8365 63.8371 61.2776V50.2811H61.3473V45.3016H73.1045V50.2811H70.9606V61.3467C70.9606 67.2945 67.9175 70.3375 61.9698 70.3375ZM87.4223 67.0178C86.4886 68.8506 84.6213 70.5104 81.6474 70.5104C78.3277 70.5104 75.8725 68.3665 75.8725 63.7327V56.4018H74.2819V51.941H82.0969V62.5224C82.0969 64.5281 82.8923 65.4963 84.5521 65.4963C86.212 65.4963 87.4223 64.4243 87.4223 62.1075V56.4018H85.7624V51.941H93.6467V65.7038H95.3065V70.0263H87.4223V67.0178ZM106.016 70.0263H96.5063V65.7038H98.1315V56.4018H96.4717V51.941H104.321V54.9494C105.255 53.1513 107.122 51.4568 110.131 51.4568C113.485 51.4568 115.94 53.6008 115.94 58.1999V65.7038H117.531V70.0263H108.056V65.7038H109.716V59.4102C109.716 57.4392 108.92 56.4709 107.261 56.4709C105.532 56.4709 104.321 57.5429 104.321 59.8252V65.7038H106.016V70.0263ZM123.395 50.2465C121.424 50.2465 119.937 48.8633 119.937 46.996C119.937 45.1633 121.424 43.7801 123.395 43.7801C125.331 43.7801 126.818 45.1633 126.818 46.996C126.818 48.8633 125.331 50.2465 123.395 50.2465ZM128.167 70.0263H118.727V65.7038H120.352V56.4018H118.692V51.941H126.507V65.7038H128.167V70.0263Z" fill="white"/>
<path d="M100.188 136.255V131.715H109.267V144.497H75.3405V137.629L89.4963 124.966C95.1108 120.068 96.5443 117.739 96.5443 114.752C96.5443 112.184 95.0511 110.392 92.1841 110.392C89.1379 110.392 87.2266 112.244 86.6293 117.321H75.5794C75.9975 106.629 82.4482 101.194 92.7814 101.194C103.174 101.194 108.729 106.211 108.729 113.856C108.729 119.949 105.086 124.07 99.8891 128.371L90.4519 136.255H100.188Z" fill="black"/>
</svg>
