<svg width="186" height="180" viewBox="0 0 186 180" fill="none" xmlns="http://www.w3.org/2000/svg">
<circle cx="92" cy="90" r="86" fill="#F7D611"/>
<path d="M149.348 163.631H36.6544C35.1165 163.631 33.6416 163.02 32.5541 161.933C31.4666 160.846 30.8557 159.371 30.8557 157.833V78.8976C30.8557 70.259 37.5693 63.2603 45.8514 63.2603H140.162C148.445 63.2603 155.158 70.259 155.158 78.8976V157.833C155.158 161.041 152.556 163.631 149.348 163.631Z" fill="#FAFAFA" stroke="#BDBDBD" stroke-width="3.56474" stroke-miterlimit="10"/>
<path d="M150.168 33.7086H144.464C143.276 33.7086 142.313 34.671 142.313 35.8593V40.7192C142.313 41.5153 142.765 42.2045 143.442 42.6204C145.83 44.0463 147.292 46.8624 146.662 49.9519C146.128 52.566 144.036 54.6811 141.422 55.2277C140.418 55.4483 139.377 55.441 138.376 55.2062C137.375 54.9715 136.439 54.5152 135.638 53.8711C134.836 53.227 134.19 52.4114 133.745 51.4843C133.3 50.5573 133.069 49.5423 133.069 48.5141C133.069 45.995 134.423 43.7968 136.455 42.6085C137.133 42.2045 137.572 41.5153 137.572 40.7311V35.8593C137.572 34.671 136.61 33.7086 135.421 33.7086H50.545C49.3805 33.7086 48.4418 34.6473 48.4418 35.8118V40.7549C48.4418 41.5272 48.8815 42.2045 49.5469 42.5966C50.7891 43.3262 51.7706 44.4276 52.3527 45.7453C52.9348 47.0631 53.0881 48.5304 52.7908 49.94C52.2561 52.5541 50.1648 54.6692 47.5506 55.2158C46.5464 55.4364 45.5055 55.4291 44.5045 55.1943C43.5034 54.9596 42.5678 54.5034 41.7664 53.8592C40.9649 53.2151 40.3181 52.3995 39.8735 51.4725C39.4289 50.5454 39.1978 49.5304 39.1973 48.5022C39.1973 45.9713 40.5756 43.773 42.6075 42.5729C43.2611 42.1926 43.6888 41.5035 43.6888 40.743V35.8118C43.6888 34.6473 42.7501 33.7086 41.5856 33.7086H35.8227C34.0106 33.7086 32.2727 34.4284 30.9914 35.7097C29.7101 36.9911 28.9902 38.7289 28.9902 40.541V85.124H156.81L157 40.5766C157.005 39.6762 156.833 38.7835 156.492 37.9501C156.151 37.1167 155.648 36.3589 155.013 35.7206C154.378 35.0822 153.623 34.5757 152.791 34.2304C151.96 33.8851 151.068 33.7078 150.168 33.7086Z" fill="black"/>
<path d="M61.9696 70.3375C59.549 70.3375 58.3733 69.9571 57.3705 69.4384V64.1823C58.2004 64.4589 58.9958 64.701 60.4827 64.701C62.5229 64.701 63.837 63.8365 63.837 61.2776V50.2811H61.3472V45.3016H73.1044V50.2811H70.9604V61.3467C70.9604 67.2945 67.9174 70.3375 61.9696 70.3375ZM87.4221 67.0178C86.4885 68.8506 84.6212 70.5104 81.6473 70.5104C78.3276 70.5104 75.8724 68.3665 75.8724 63.7327V56.4018H74.2817V51.941H82.0968V62.5224C82.0968 64.5281 82.8922 65.4963 84.552 65.4963C86.2118 65.4963 87.4221 64.4243 87.4221 62.1075V56.4018H85.7623V51.941H93.6465V65.7038H95.3064V70.0263H87.4221V67.0178ZM106.016 70.0263H96.5061V65.7038H98.1314V56.4018H96.4716V51.941H104.321V54.9494C105.255 53.1513 107.122 51.4568 110.131 51.4568C113.485 51.4568 115.94 53.6008 115.94 58.1999V65.7038H117.531V70.0263H108.056V65.7038H109.716V59.4102C109.716 57.4392 108.92 56.4709 107.261 56.4709C105.532 56.4709 104.321 57.5429 104.321 59.8252V65.7038H106.016V70.0263ZM123.395 50.2465C121.424 50.2465 119.937 48.8633 119.937 46.996C119.937 45.1633 121.424 43.7801 123.395 43.7801C125.331 43.7801 126.818 45.1633 126.818 46.996C126.818 48.8633 125.331 50.2465 123.395 50.2465ZM128.167 70.0263H118.727V65.7038H120.352V56.4018H118.692V51.941H126.507V65.7038H128.167V70.0263Z" fill="white"/>
<path d="M93.0301 145.214C82.2788 145.214 75.2308 140.734 75.2308 132.432C75.2308 127.534 77.9186 123.771 82.9956 121.98C79.2327 120.307 76.963 117.44 76.963 113.14C76.963 105.494 84.3096 101.194 93.1495 101.194C102.228 101.194 109.276 105.494 109.276 113.08C109.276 117.44 106.887 120.247 103.184 121.92C108.261 123.652 110.889 127.295 110.889 132.133C110.889 140.376 103.841 145.214 93.0301 145.214ZM93.1495 118.814C96.0165 118.814 98.2265 117.022 98.2265 114.095C98.2265 111.228 95.9568 109.436 93.1495 109.436C90.402 109.436 88.1323 111.228 88.1323 114.095C88.1323 117.022 90.402 118.814 93.1495 118.814ZM93.0898 136.613C96.4944 136.613 98.8835 134.582 98.8835 131.178C98.8835 127.773 96.5541 125.742 93.0898 125.742C89.745 125.742 87.2364 127.713 87.2364 131.178C87.2364 134.582 89.745 136.613 93.0898 136.613Z" fill="black"/>
</svg>
