<svg width="392" height="392" viewBox="0 0 392 392" fill="none" xmlns="http://www.w3.org/2000/svg">
<g clip-path="url(#clip0_4_609)">
<circle cx="196" cy="196" r="196" fill="#F7D611"/>
<path d="M204.438 167.875H246.625C249.609 167.875 252.47 169.06 254.58 171.17C256.69 173.28 257.875 176.141 257.875 179.125V308.5H134.125V179.125C134.125 176.141 135.31 173.28 137.42 171.17C139.53 169.06 142.391 167.875 145.375 167.875H159.438" stroke="black" stroke-width="22.5" stroke-linecap="round" stroke-linejoin="round"/>
<path d="M156.625 106H142.562C134.357 106 126.488 109.259 120.686 115.061C114.884 120.863 111.625 128.732 111.625 136.938C111.625 145.143 114.884 153.012 120.686 158.814C126.488 164.616 134.357 167.875 142.562 167.875H167.875V226.938C167.875 230.667 169.357 234.244 171.994 236.881C174.631 239.518 178.208 241 181.938 241C185.667 241 189.244 239.518 191.881 236.881C194.518 234.244 196 230.667 196 226.938V167.875H249.438C257.643 167.875 265.512 164.616 271.314 158.814C277.116 153.012 280.375 145.143 280.375 136.938C280.375 128.732 277.116 120.863 271.314 115.061C265.512 109.259 257.643 106 249.438 106H224.125C224.125 106 218.5 83.5 190.375 83.5C162.25 83.5 156.625 106 156.625 106Z" stroke="black" stroke-width="22.5" stroke-linecap="round" stroke-linejoin="round"/>
<path d="M257.875 179.125H286C288.984 179.125 291.845 180.31 293.955 182.42C296.065 184.53 297.25 187.391 297.25 190.375V218.5C297.25 224.467 294.879 230.19 290.66 234.41C286.44 238.629 280.717 241 274.75 241H257.875" stroke="black" stroke-width="22.5" stroke-linecap="round"/>
</g>
<defs>
<clipPath id="clip0_4_609">
<rect width="392" height="392" fill="white"/>
</clipPath>
</defs>
</svg>
