<svg width="392" height="392" viewBox="0 0 392 392" fill="none" xmlns="http://www.w3.org/2000/svg">
<g clip-path="url(#clip0_4_617)">
<circle cx="196" cy="196" r="196" fill="#F7D611"/>
<g clip-path="url(#clip1_4_617)">
<path fill-rule="evenodd" clip-rule="evenodd" d="M167.876 72.25C160.417 72.25 153.263 75.2132 147.989 80.4876C142.714 85.7621 139.751 92.9158 139.751 100.375V178.697C136.742 176.152 133.459 173.949 129.964 172.128C118.489 166.3 107.351 167.2 95.6175 171.993C86.1675 175.874 83.1637 186.708 87.2137 194.808L119.186 258.752C126.66 273.699 138.148 286.269 152.363 295.056C166.577 303.842 182.958 308.497 199.669 308.5H207.251C231.121 308.5 254.013 299.018 270.891 282.14C287.769 265.261 297.251 242.369 297.251 218.5V134.125C297.251 126.666 294.288 119.512 289.014 114.238C283.739 108.963 276.585 106 269.126 106C261.667 106 254.513 108.963 249.239 114.238C243.964 119.512 241.001 126.666 241.001 134.125V151.563C237.106 150.775 233.088 150.82 229.211 151.692C225.334 152.564 221.684 154.245 218.501 156.625C215.325 154.232 211.676 152.543 207.797 151.67C203.917 150.797 199.896 150.76 196.001 151.563V100.375C196.001 96.6816 195.274 93.0243 193.86 89.612C192.447 86.1997 190.375 83.0993 187.764 80.4876C185.152 77.876 182.052 75.8043 178.639 74.3909C175.227 72.9775 171.57 72.25 167.876 72.25ZM241.001 179.125C241.001 177.633 240.409 176.202 239.354 175.148C238.299 174.093 236.868 173.5 235.376 173.5C233.884 173.5 232.454 174.093 231.399 175.148C230.344 176.202 229.751 177.633 229.751 179.125V184.75C229.751 187.734 228.566 190.595 226.456 192.705C224.346 194.815 221.485 196 218.501 196C215.518 196 212.656 194.815 210.546 192.705C208.437 190.595 207.251 187.734 207.251 184.75V179.125C207.251 177.633 206.659 176.202 205.604 175.148C204.549 174.093 203.118 173.5 201.626 173.5C200.134 173.5 198.704 174.093 197.649 175.148C196.594 176.202 196.001 177.633 196.001 179.125V196C196.001 198.984 194.816 201.845 192.706 203.955C190.596 206.065 187.735 207.25 184.751 207.25C181.768 207.25 178.906 206.065 176.796 203.955C174.687 201.845 173.501 198.984 173.501 196V100.375C173.501 98.8832 172.909 97.4524 171.854 96.3975C170.799 95.3426 169.368 94.75 167.876 94.75C166.384 94.75 164.954 95.3426 163.899 96.3975C162.844 97.4524 162.251 98.8832 162.251 100.375V207.25C162.249 209.579 161.525 211.85 160.177 213.75C158.83 215.65 156.926 217.084 154.728 217.856C152.531 218.628 150.148 218.698 147.909 218.058C145.669 217.417 143.684 216.098 142.226 214.281C131.82 201.276 125.16 194.931 119.782 192.186C116.909 190.639 113.577 190.172 110.389 190.87L139.301 248.695C144.908 259.905 153.525 269.332 164.187 275.921C174.849 282.509 187.135 286 199.669 286H207.251C225.153 286 242.322 278.888 254.981 266.23C267.64 253.571 274.751 236.402 274.751 218.5V134.125C274.751 132.633 274.159 131.202 273.104 130.148C272.049 129.093 270.618 128.5 269.126 128.5C267.634 128.5 266.204 129.093 265.149 130.148C264.094 131.202 263.501 132.633 263.501 134.125V196C263.501 198.984 262.316 201.845 260.206 203.955C258.096 206.065 255.235 207.25 252.251 207.25C249.268 207.25 246.406 206.065 244.296 203.955C242.187 201.845 241.001 198.984 241.001 196V179.125Z" fill="black"/>
</g>
</g>
<defs>
<clipPath id="clip0_4_617">
<rect width="392" height="392" fill="white"/>
</clipPath>
<clipPath id="clip1_4_617">
<rect width="270" height="270" fill="white" transform="translate(61 61)"/>
</clipPath>
</defs>
</svg>
