<svg width="392" height="392" viewBox="0 0 392 392" fill="none" xmlns="http://www.w3.org/2000/svg">
<g clip-path="url(#clip0_4_608)">
<circle cx="196" cy="196" r="196" fill="#F7D611"/>
<path d="M318.366 88.3512L303.666 73.6512C302.192 72.1766 300.442 71.0069 298.515 70.2088C296.589 69.4108 294.524 69 292.439 69C290.354 69 288.289 69.4108 286.363 70.2088C284.436 71.0069 282.686 72.1766 281.212 73.6512L258.251 96.6364C256.327 98.5558 254.877 100.899 254.019 103.478L247.987 121.591L210.152 159.425C204.12 155.079 197.501 151.616 190.258 149.93C173.663 146.07 157.018 149.493 145.667 160.844C141.036 165.494 137.592 171.189 135.625 177.449C132.649 186.657 124.11 193.667 114.714 194.546C102.956 195.672 92.0262 200.226 83.6517 208.655C61.0088 231.234 65.0819 271.915 92.6067 299.425C120.131 326.935 160.783 330.954 183.387 308.39C191.821 300.016 196.365 289.091 197.501 277.278C198.375 267.927 205.385 259.354 214.583 256.372C220.844 254.402 226.541 250.956 231.193 246.326C242.539 234.974 245.947 218.364 242.108 201.799C240.426 194.536 236.963 187.908 232.602 181.855L270.426 144.031L288.525 137.998C291.104 137.14 293.447 135.691 295.366 133.766L318.351 110.786C321.325 107.811 322.997 103.778 323 99.5716C323.003 95.3653 321.336 91.3298 318.366 88.3512ZM172.194 243.637C167.484 243.637 162.88 242.24 158.964 239.623C155.048 237.007 151.996 233.287 150.193 228.936C148.391 224.585 147.919 219.796 148.838 215.177C149.757 210.558 152.025 206.314 155.355 202.984C158.686 199.654 162.929 197.386 167.548 196.467C172.168 195.548 176.956 196.019 181.307 197.822C185.659 199.624 189.378 202.677 191.995 206.593C194.611 210.509 196.008 215.113 196.008 219.823C196.008 226.139 193.499 232.196 189.033 236.662C184.567 241.128 178.51 243.637 172.194 243.637Z" fill="black"/>
</g>
<defs>
<clipPath id="clip0_4_608">
<rect width="392" height="392" fill="white"/>
</clipPath>
</defs>
</svg>
